%FSLAX35Y35*%
%MOIN*%
G04 EasyPC Gerber Version 18.0.9 Build 3640 *
%ADD160R,0.03534X0.01762*%
%ADD150R,0.04124X0.03140*%
%ADD155R,0.03337X0.10620*%
%ADD159R,0.04124X0.05384*%
%ADD151R,0.04124X0.12195*%
%ADD120R,0.04900X0.05400*%
%ADD152R,0.05030X0.21054*%
%ADD157R,0.05700X0.09600*%
%ADD161R,0.06683X0.04715*%
%ADD118R,0.05400X0.04900*%
%ADD158R,0.09600X0.05700*%
%ADD153R,0.08258X0.07746*%
%ADD154R,0.10424X0.12983*%
%ADD156R,0.21250X0.23416*%
%ADD162R,0.11802X0.08061*%
%ADD119R,0.05700X0.05700*%
X0Y0D02*
D02*
D118*
X109923Y10093D03*
X118923D03*
X231970Y13045D03*
X240970D03*
X249687Y67179D03*
X251656Y13045D03*
X258687Y67179D03*
X260656Y13045D03*
D02*
D119*
X185479Y10093D03*
X189318Y88341D03*
X198879Y10093D03*
X202718Y88341D03*
X243550Y22888D03*
X256950D03*
D02*
D120*
X142967Y56774D03*
Y65774D03*
D02*
D150*
X186864Y25250D03*
Y34699D03*
Y44148D03*
D02*
D151*
X160093Y34699D03*
D02*
D152*
X260998Y46510D03*
X276904D03*
D02*
D153*
X187907Y69148D03*
X205112D03*
D02*
D154*
X187258Y104974D03*
X205368D03*
D02*
D155*
X269793Y124856D03*
X278793D03*
X287793D03*
D02*
D156*
X278793Y98675D03*
D02*
D157*
X161857Y12061D03*
X175257D03*
X208117Y15998D03*
X221517D03*
X243550Y81943D03*
Y100644D03*
Y120329D03*
X256950Y81943D03*
Y100644D03*
Y120329D03*
D02*
D158*
X269935Y66385D03*
Y79785D03*
D02*
D159*
X48085Y28321D03*
Y62730D03*
X68557Y28321D03*
Y62730D03*
D02*
D160*
X242967Y33911D03*
Y41392D03*
X251628Y37652D03*
D02*
D161*
X198183Y31667D03*
Y41667D03*
X233419Y31667D03*
Y41667D03*
D02*
D162*
X142967Y15998D03*
Y43557D03*
X0Y0D02*
M02*
