%FSLAX35Y35*%
%MOIN*%
G04 EasyPC Gerber Version 18.0.9 Build 3640 *
%ADD15R,0.06000X0.06000*%
%ADD71C,0.01000*%
%ADD10C,0.02500*%
%ADD70C,0.03200*%
%ADD21C,0.03937*%
%ADD20C,0.05906*%
%ADD17C,0.06000*%
%ADD16C,0.06000*%
%ADD18C,0.07480*%
%ADD14C,0.07500*%
%ADD13C,0.07500*%
%ADD19C,0.07874*%
%ADD12C,0.09843*%
%ADD11C,0.21654*%
X0Y0D02*
D02*
D10*
X93754Y38636D02*
X208911D01*
Y7140*
X93754*
Y38636*
G36*
X208911*
Y7140*
X93754*
Y38636*
G37*
X225644Y71116D02*
X277809D01*
X280762Y62258*
X289620Y58321*
Y48478*
X251234Y47494*
X238439Y55368*
X225644Y71116*
G36*
X277809*
X280762Y62258*
X289620Y58321*
Y48478*
X251234Y47494*
X238439Y55368*
X225644Y71116*
G37*
D02*
D11*
X15998Y15998D03*
Y145919D03*
X283715Y15998D03*
Y145919D03*
D02*
D12*
X164596Y65715D03*
Y85715D03*
Y105715D03*
Y125715D03*
Y145715D03*
X226596Y70715D03*
Y85715D03*
Y105715D03*
Y125715D03*
Y145715D03*
D02*
D13*
X103596Y52415D03*
D02*
D14*
Y32415D03*
D02*
D15*
X289620Y48006D03*
Y58006D03*
Y68006D03*
Y78006D03*
D02*
D16*
X22888Y96392D03*
Y116392D03*
X39620Y123281D03*
Y153281D03*
X73911Y15014D03*
X83911D03*
D02*
D17*
X21904Y60289D03*
Y76037D03*
D02*
D18*
X56352Y145919D03*
X60289Y80959D03*
Y120329D03*
X111470Y80959D03*
Y120329D03*
X115407Y145919D03*
D02*
D19*
X103596Y52415D02*
X164596Y85715D01*
D02*
D70*
X159699Y21904D03*
Y25841D03*
X184305Y16982D03*
X188242D03*
X192179D03*
X207927Y7140D03*
X251628Y47494D03*
X277809Y69148D03*
D02*
D71*
X251628Y47494D02*
X251526Y65687D01*
X289620Y58006D02*
Y48006D01*
D02*
D20*
X251526Y65687D02*
X226596Y70715D01*
X278774Y60193D02*
X251526Y65687D01*
X289620Y58006D02*
X278774Y60193D01*
D02*
D21*
X277809Y69148D02*
X278774Y60193D01*
X0Y0D02*
M02*
