%FSLAX35Y35*%
%MOIN*%
G04 EasyPC Gerber Version 18.0.9 Build 3640 *
%ADD74C,0.00500*%
%ADD73C,0.10000*%
X0Y0D02*
D02*
D73*
X15998Y15998D03*
Y145919D03*
X21904Y60289D03*
Y76037D03*
X22888Y96392D03*
Y116392D03*
X39620Y123281D03*
Y153281D03*
X56352Y145919D03*
X60289Y80959D03*
Y120329D03*
X73911Y15014D03*
X83911D03*
X103596Y32415D03*
Y52415D03*
X111470Y80959D03*
Y120329D03*
X115407Y145919D03*
X159699Y21904D03*
Y25841D03*
X164596Y65715D03*
Y85715D03*
Y105715D03*
Y125715D03*
Y145715D03*
X184305Y16982D03*
X188242D03*
X192179D03*
X207927Y7140D03*
X226596Y70715D03*
Y85715D03*
Y105715D03*
Y125715D03*
Y145715D03*
X251628Y47494D03*
X277809Y69148D03*
X283715Y15998D03*
Y145919D03*
X289620Y48006D03*
Y58006D03*
Y68006D03*
Y78006D03*
D02*
D74*
X25998Y21935D02*
Y25685D01*
Y23811D02*
X29123D01*
Y21935D02*
Y25685D01*
X25998Y151857D02*
Y155607D01*
Y153732D02*
X29123D01*
Y151857D02*
Y155607D01*
X31904Y66227D02*
Y69977D01*
X35029*
X34404Y68102D02*
X31904D01*
Y66227D02*
X35029D01*
X31904Y81975D02*
Y85725D01*
X35029*
X34404Y83850D02*
X31904D01*
Y81975D02*
X35029D01*
X35075Y103892D02*
X36013D01*
Y103579*
X35700Y102954*
X35388Y102642*
X34763Y102329*
X34138*
X33513Y102642*
X33200Y102954*
X32888Y103579*
Y104829*
X33200Y105454*
X33513Y105767*
X34138Y106079*
X34763*
X35388Y105767*
X35700Y105454*
X36013Y104829*
X35075Y123892D02*
X36013D01*
Y123579*
X35700Y122954*
X35388Y122642*
X34763Y122329*
X34138*
X33513Y122642*
X33200Y122954*
X32888Y123579*
Y124829*
X33200Y125454*
X33513Y125767*
X34138Y126079*
X34763*
X35388Y125767*
X35700Y125454*
X36013Y124829*
X51807Y130781D02*
X52745D01*
Y130469*
X52433Y129844*
X52120Y129531*
X51495Y129219*
X50870*
X50245Y129531*
X49933Y129844*
X49620Y130469*
Y131719*
X49933Y132344*
X50245Y132657*
X50870Y132969*
X51495*
X52120Y132657*
X52433Y132344*
X52745Y131719*
X51807Y160781D02*
X52745D01*
Y160469*
X52433Y159844*
X52120Y159531*
X51495Y159219*
X50870*
X50245Y159531*
X49933Y159844*
X49620Y160469*
Y161719*
X49933Y162344*
X50245Y162657*
X50870Y162969*
X51495*
X52120Y162657*
X52433Y162344*
X52745Y161719*
X66352Y152482D02*
X66665Y152169D01*
X67290Y151857*
X67915Y152169*
X68228Y152482*
Y155607*
X68852*
X68228D02*
X66978D01*
X70289Y87521D02*
X70602Y87209D01*
X71227Y86896*
X71852Y87209*
X72165Y87521*
Y90646*
X72789*
X72165D02*
X70915D01*
X70289Y126891D02*
X70602Y126579D01*
X71227Y126266*
X71852Y126579*
X72165Y126891*
Y130016*
X72789*
X72165D02*
X70915D01*
X86099Y22514D02*
X87037D01*
Y22201*
X86724Y21576*
X86411Y21264*
X85787Y20951*
X85161*
X84537Y21264*
X84224Y21576*
X83911Y22201*
Y23451*
X84224Y24076*
X84537Y24389*
X85161Y24701*
X85787*
X86411Y24389*
X86724Y24076*
X87037Y23451*
X96099Y22514D02*
X97037D01*
Y22201*
X96724Y21576*
X96411Y21264*
X95787Y20951*
X95161*
X94537Y21264*
X94224Y21576*
X93911Y22201*
Y23451*
X94224Y24076*
X94537Y24389*
X95161Y24701*
X95787*
X96411Y24389*
X96724Y24076*
X97037Y23451*
X115784Y39915D02*
X116722D01*
Y39603*
X116409Y38978*
X116096Y38665*
X115472Y38353*
X114846*
X114222Y38665*
X113909Y38978*
X113596Y39603*
Y40853*
X113909Y41478*
X114222Y41791*
X114846Y42103*
X115472*
X116096Y41791*
X116409Y41478*
X116722Y40853*
X115784Y59915D02*
X116722D01*
Y59603*
X116409Y58978*
X116096Y58665*
X115472Y58353*
X114846*
X114222Y58665*
X113909Y58978*
X113596Y59603*
Y60853*
X113909Y61478*
X114222Y61791*
X114846Y62103*
X115472*
X116096Y61791*
X116409Y61478*
X116722Y60853*
X121470Y87521D02*
X121783Y87209D01*
X122408Y86896*
X123033Y87209*
X123346Y87521*
Y90646*
X123970*
X123346D02*
X122096D01*
X121470Y126891D02*
X121783Y126579D01*
X122408Y126266*
X123033Y126579*
X123346Y126891*
Y130016*
X123970*
X123346D02*
X122096D01*
X125407Y152482D02*
X125720Y152169D01*
X126345Y151857*
X126970Y152169*
X127283Y152482*
Y155607*
X127907*
X127283D02*
X126033D01*
X169699Y27841D02*
Y31591D01*
X172824*
X172199Y29716D02*
X169699D01*
Y31778D02*
Y35528D01*
X172824*
X172199Y33653D02*
X169699D01*
X175534Y71652D02*
X176784D01*
X176159D02*
Y75402D01*
X175534D02*
X176784D01*
X175534Y91652D02*
X176784D01*
X176159D02*
Y95402D01*
X175534D02*
X176784D01*
X175534Y111652D02*
X176784D01*
X176159D02*
Y115402D01*
X175534D02*
X176784D01*
X175534Y131652D02*
X176784D01*
X176159D02*
Y135402D01*
X175534D02*
X176784D01*
X175534Y151652D02*
X176784D01*
X176159D02*
Y155402D01*
X175534D02*
X176784D01*
X194305Y22920D02*
Y26670D01*
X197430*
X196805Y24795D02*
X194305D01*
X198242Y22920D02*
Y26670D01*
X201367*
X200742Y24795D02*
X198242D01*
X202179Y22920D02*
Y26670D01*
X205304*
X204679Y24795D02*
X202179D01*
X217927Y13077D02*
Y16827D01*
X221052*
X220427Y14952D02*
X217927D01*
X237534Y76652D02*
X238784D01*
X238159D02*
Y80402D01*
X237534D02*
X238784D01*
X237534Y91652D02*
X238784D01*
X238159D02*
Y95402D01*
X237534D02*
X238784D01*
X237534Y111652D02*
X238784D01*
X238159D02*
Y115402D01*
X237534D02*
X238784D01*
X237534Y131652D02*
X238784D01*
X238159D02*
Y135402D01*
X237534D02*
X238784D01*
X237534Y151652D02*
X238784D01*
X238159D02*
Y155402D01*
X237534D02*
X238784D01*
X261628Y53431D02*
Y57181D01*
X264753*
X264128Y55307D02*
X261628D01*
X287809Y75085D02*
Y78835D01*
X290934*
X290309Y76960D02*
X287809D01*
X293715Y21935D02*
Y25685D01*
Y23811D02*
X296840D01*
Y21935D02*
Y25685D01*
X293715Y151857D02*
Y155607D01*
Y153732D02*
X296840D01*
Y151857D02*
Y155607D01*
X299620Y53943D02*
Y57693D01*
X302745*
X302120Y55819D02*
X299620D01*
Y53943D02*
X302745D01*
X299620Y63943D02*
Y67693D01*
X302745*
X302120Y65819D02*
X299620D01*
Y63943D02*
X302745D01*
X299620Y73943D02*
Y77693D01*
X302745*
X302120Y75819D02*
X299620D01*
Y73943D02*
X302745D01*
X299620Y83943D02*
Y87693D01*
X302745*
X302120Y85819D02*
X299620D01*
Y83943D02*
X302745D01*
X0Y0D02*
M02*
