%FSLAX35Y35*%
%MOIN*%
G04 EasyPC Gerber Version 18.0.9 Build 3640 *
%ADD95R,0.04134X0.02362*%
%ADD87R,0.03937X0.11220*%
%ADD92R,0.04724X0.05984*%
%ADD83R,0.04724X0.12795*%
%ADD94R,0.05500X0.06000*%
%ADD84R,0.05630X0.21654*%
%ADD82R,0.04724X0.03740*%
%ADD96R,0.07283X0.05315*%
%ADD91R,0.06000X0.05500*%
%ADD89R,0.06300X0.10200*%
%ADD90R,0.10200X0.06300*%
%ADD86R,0.11024X0.13583*%
%ADD88R,0.21850X0.24016*%
%ADD15R,0.06000X0.06000*%
%ADD93R,0.06300X0.06300*%
%ADD71C,0.01000*%
%ADD10C,0.02500*%
%ADD70C,0.03200*%
%ADD21C,0.03937*%
%ADD99C,0.04724*%
%ADD98C,0.05118*%
%ADD20C,0.05906*%
%ADD17C,0.06000*%
%ADD16C,0.06000*%
%ADD18C,0.07480*%
%ADD14C,0.07500*%
%ADD13C,0.07500*%
%ADD19C,0.07874*%
%ADD12C,0.09843*%
%ADD11C,0.21654*%
%ADD85R,0.08858X0.08346*%
%ADD97R,0.12402X0.08661*%
X0Y0D02*
D02*
D10*
X102612Y25841D02*
X79974Y21904D01*
X74069Y13045*
X68163Y27809*
X103596Y32730*
X102612Y25841*
G36*
X79974Y21904*
X74069Y13045*
X68163Y27809*
X103596Y32730*
X102612Y25841*
G37*
X128203Y50447D02*
Y29778D01*
X106549Y28793*
X128203Y50447*
G36*
Y29778*
X106549Y28793*
X128203Y50447*
G37*
X159699Y21904D02*
Y34699D01*
X102612Y31746*
Y25841*
X149856*
X159699Y21904*
G36*
Y34699*
X102612Y31746*
Y25841*
X149856*
X159699Y21904*
G37*
X164817Y86077D02*
X186864Y104974D01*
X189226Y88045*
X164817Y86077*
G36*
X186864Y104974*
X189226Y88045*
X164817Y86077*
G37*
X192179Y16982D02*
X185289Y10093D01*
X175447Y12061*
X184305Y16982*
X192179*
G36*
X185289Y10093*
X175447Y12061*
X184305Y16982*
X192179*
G37*
D02*
D11*
X15998Y15998D03*
Y145919D03*
X283715Y15998D03*
Y145919D03*
D02*
D12*
X164596Y65715D03*
Y85715D03*
Y105715D03*
Y125715D03*
Y145715D03*
X226596Y70715D03*
Y85715D03*
Y105715D03*
Y125715D03*
Y145715D03*
D02*
D13*
X103596Y52415D03*
D02*
D14*
Y32415D03*
D02*
D15*
X289620Y48006D03*
Y58006D03*
Y68006D03*
Y78006D03*
D02*
D16*
X22888Y96392D03*
Y116392D03*
X39620Y123281D03*
Y153281D03*
X73911Y15014D03*
X83911D03*
D02*
D17*
X21904Y60289D03*
Y76037D03*
D02*
D18*
X56352Y145919D03*
X60289Y80959D03*
Y120329D03*
X111470Y80959D03*
Y120329D03*
X115407Y145919D03*
D02*
D19*
X103596Y32415D02*
X125250Y46510D01*
X139030Y123281*
X164596Y145715*
D02*
D70*
X159699Y21904D03*
Y25841D03*
X184305Y16982D03*
X188242D03*
X192179D03*
X207927Y7140D03*
X251628Y47494D03*
X277809Y69148D03*
D02*
D71*
X109923Y10093D02*
X83911Y15014D01*
X118923Y10093D02*
X128203Y6156D01*
X153793*
X161857Y12061*
X142967Y15998D02*
X128203Y18951D01*
X115407*
X109923Y10093*
X142967Y56774D02*
Y43557D01*
Y65774D02*
X148872Y87848D01*
Y104581*
X164596Y125715*
X161857Y12061D02*
X169541Y21904D01*
X186864Y25250*
X175257Y12061D02*
X184305Y16982D01*
X185479Y10093D02*
X192179Y4187D01*
X208117*
Y15998*
X185479Y10093D02*
X175257Y12061D01*
X186864Y34699D02*
X198183Y31667D01*
X198879Y10093*
X208117Y15998D02*
Y35683D01*
X198183Y41667*
X231970Y13045D02*
X221517Y15998D01*
X233419Y31667D02*
X226628Y36667D01*
Y47494*
X249687Y67179*
X240970Y13045D02*
X251656D01*
X242967Y41392D02*
X233419Y41667D01*
X243550Y22888D02*
X239423Y29778D01*
Y36667*
X242967Y41392*
X251628Y37652D02*
Y47494D01*
X256950Y22888D02*
X251234Y29778D01*
X242967Y33911*
X256950Y22888D02*
X251656Y13045D01*
X258687Y67179D02*
X260998Y46510D01*
X258687Y67179D02*
X256950Y81943D01*
X260656Y13045D02*
X265998Y18951D01*
X276904Y46510*
D02*
D20*
X21904Y60289D02*
X39620Y77022D01*
Y88833*
X56352Y102612*
X94738*
X111470Y120329*
X21904Y76037D02*
X22888Y96392D01*
Y116392D02*
X39620Y123281D01*
Y153281D02*
X56352Y145919D01*
X60289Y80959D02*
X48085Y62730D01*
X60289Y120329D02*
X56352Y145919D01*
X68557Y28321D02*
X103596Y32415D01*
X68557Y28321D02*
X73911Y15014D01*
X68557Y62730D02*
X80959Y80959D01*
X111470*
X103596Y32415D02*
X122297D01*
X127279Y32716*
X111470Y120329D02*
X115407Y145919D01*
X226596Y70715D02*
X243550Y81943D01*
Y100644*
Y120329D02*
Y100644D01*
D02*
D21*
X103596Y52415D02*
X57337Y44541D01*
X48085Y28321*
X127279Y32716D02*
X160093Y34699D01*
X186864Y44148D02*
X187907Y69148D01*
X221517Y15998D02*
Y61274D01*
X226596Y70715*
X256950Y100644D02*
X278793Y98675D01*
X269793Y124856D02*
X264423Y131746D01*
X269935Y66385D02*
X277809Y69148D01*
X276904Y46510D02*
X282730Y65211D01*
X289620Y68006*
Y78006D02*
Y68006D01*
Y78006D02*
X269935Y79785D01*
D02*
D82*
X186864Y25250D03*
Y34699D03*
Y44148D03*
D02*
D83*
X160093Y34699D03*
D02*
D84*
X260998Y46510D03*
X276904D03*
D02*
D85*
X187907Y69148D03*
X205112D03*
D02*
D86*
X187258Y104974D03*
X205368D03*
D02*
D87*
X269793Y124856D03*
X278793D03*
X287793D03*
D02*
D88*
X278793Y98675D03*
D02*
D89*
X161857Y12061D03*
X175257D03*
X208117Y15998D03*
X221517D03*
X243550Y81943D03*
Y100644D03*
Y120329D03*
X256950Y81943D03*
Y100644D03*
Y120329D03*
D02*
D90*
X269935Y66385D03*
Y79785D03*
D02*
D91*
X109923Y10093D03*
X118923D03*
X231970Y13045D03*
X240970D03*
X249687Y67179D03*
X251656Y13045D03*
X258687Y67179D03*
X260656Y13045D03*
D02*
D92*
X48085Y28321D03*
Y62730D03*
X68557Y28321D03*
Y62730D03*
D02*
D93*
X185479Y10093D03*
X189318Y88341D03*
X198879Y10093D03*
X202718Y88341D03*
X243550Y22888D03*
X256950D03*
D02*
D94*
X142967Y56774D03*
Y65774D03*
D02*
D95*
X242967Y33911D03*
Y41392D03*
X251628Y37652D03*
D02*
D96*
X198183Y31667D03*
Y41667D03*
X233419Y31667D03*
Y41667D03*
D02*
D97*
X142967Y15998D03*
Y43557D03*
D02*
D98*
X164596Y65715D02*
X187907Y69148D01*
X164596Y85715D02*
X189318Y88341D01*
X187258Y104974D02*
X189318Y88341D01*
X202718D02*
X205368Y104974D01*
X205112Y69148D02*
X202718Y88341D01*
X264423Y131746D02*
X226596Y145715D01*
D02*
D99*
X256950Y100644D02*
Y120329D01*
Y100644D02*
Y81943D01*
X278793Y98675D02*
Y124856D01*
X0Y0D02*
M02*
