%FSLAX35Y35*%
%MOIN*%
G04 EasyPC Gerber Version 18.0.9 Build 3640 *
%ADD78C,0.00100*%
%ADD75C,0.00394*%
%ADD79C,0.00472*%
%ADD74C,0.00500*%
%ADD76C,0.00787*%
%ADD80C,0.00984*%
%ADD71C,0.01000*%
%ADD77C,0.01500*%
%ADD81C,0.02000*%
X0Y0D02*
D02*
D71*
X74361Y66646D02*
G75*
G02X75425I532D01*
G01*
X74361D02*
G75*
G02X75425I532D01*
G01*
G75*
G02X74361I-532*
G01*
X75073Y58321D02*
Y32730D01*
X41569*
Y58321*
X75073*
X281470Y33596D02*
X256431D01*
Y59423*
X281470*
Y33596*
X284620Y83006D02*
Y43006D01*
X294620*
Y83006*
X284620*
D02*
D74*
X10093Y85880D02*
Y50447D01*
X37652*
Y85880*
X10093*
X13624Y76456D02*
X13311Y76768D01*
X12998Y77393*
Y78331*
X13311Y78956*
X13624Y79268*
X14248Y79581*
X15498*
X16124Y79268*
X16436Y78956*
X16748Y78331*
Y77393*
X16436Y76768*
X16124Y76456*
X14248Y74581D02*
X15498D01*
X16124Y74268*
X16436Y73956*
X16748Y73331*
Y72706*
X16436Y72081*
X16124Y71768*
X15498Y71456*
X14248*
X13624Y71768*
X13311Y72081*
X12998Y72706*
Y73331*
X13311Y73956*
X13624Y74268*
X14248Y74581*
X12998Y69581D02*
X16748D01*
X12998Y66456*
X16748*
X12998Y64581D02*
X16748D01*
X12998Y61456*
X16748*
X12998Y58956D02*
Y57706D01*
Y58331D02*
X16748D01*
X16124Y58956*
X22888Y123892D02*
G75*
G03Y88892J-17500D01*
G01*
G75*
G03Y123892J17500*
G01*
X31183Y134531D02*
X27433D01*
Y136719*
X27745Y137344*
X28370Y137657*
X28995Y137344*
X29307Y136719*
Y134531*
Y136719D02*
X31183Y137657D01*
Y140157D02*
Y141407D01*
Y140781D02*
X27433D01*
X28057Y140157*
X33761Y102612D02*
X30011D01*
Y105737*
X31886Y105112D02*
Y102612D01*
X33761Y108237D02*
Y109487D01*
Y108862D02*
X30011D01*
X30636Y108237*
X39620Y128281D02*
Y133281D01*
Y143281D02*
Y148281D01*
X44620Y133281D02*
X34620D01*
Y143281*
X44620*
Y133281*
X63415Y7718D02*
X63102Y7406D01*
X62477Y7093*
X61539*
X60915Y7406*
X60602Y7718*
X60289Y8343*
Y9593*
X60602Y10218*
X60915Y10531*
X61539Y10843*
X62477*
X63102Y10531*
X63415Y10218*
X67789Y7093D02*
X65289D01*
X67477Y9281*
X67789Y9906*
X67477Y10531*
X66852Y10843*
X65915*
X65289Y10531*
X65383Y138624D02*
X65070Y138311D01*
X64445Y137998*
X63508*
X62883Y138311*
X62570Y138624*
X62258Y139248*
Y140498*
X62570Y141124*
X62883Y141436*
X63508Y141748*
X64445*
X65070Y141436*
X65383Y141124*
X68195Y137998D02*
X68820Y138311D01*
X69445Y138936*
X69758Y139874*
Y140811*
X69445Y141436*
X68820Y141748*
X68195*
X67570Y141436*
X67258Y140811*
X67570Y140186*
X68195Y139874*
X68820*
X69445Y140186*
X69758Y140811*
X67179Y130171D02*
Y71116D01*
X83911*
Y130171*
X67179*
X87848D02*
Y71116D01*
X104581*
Y130171*
X87848*
X88911Y15014D02*
G75*
G02X78911Y5014I-10000D01*
G01*
G75*
G02X68911Y15014J10000*
G01*
G75*
G02X78911Y25014I10000*
G01*
G75*
G02X88911Y15014J-10000*
G01*
X91411Y5326D02*
X88911D01*
X90161Y6576D02*
Y4076D01*
X103596Y67415D02*
G75*
G02X128596Y42415J-25000D01*
G01*
G75*
G02X103596Y17415I-25000*
G01*
G75*
G02X78596Y42415J25000*
G01*
G75*
G02X103596Y67415I25000*
G01*
X112784Y54915D02*
Y52415D01*
X111534Y53665D02*
X114034D01*
X121485Y16576D02*
X121173Y16264D01*
X120548Y15951*
X119610*
X118985Y16264*
X118673Y16576*
X118360Y17201*
Y18451*
X118673Y19076*
X118985Y19389*
X119610Y19701*
X120548*
X121173Y19389*
X121485Y19076*
X123985Y15951D02*
X125235D01*
X124610D02*
Y19701D01*
X123985Y19076*
X122423Y13593D02*
X106423D01*
Y6593*
X122423*
Y13593*
X125250Y6109D02*
Y9859D01*
X127437*
X128063Y9546*
X128375Y8921*
X128063Y8296*
X127437Y7984*
X125250*
X127437D02*
X128375Y6109D01*
X132750D02*
X130250D01*
X132437Y8296*
X132750Y8921*
X132437Y9546*
X131813Y9859*
X130875*
X130250Y9546*
X139467Y69274D02*
Y53274D01*
X146467*
Y69274*
X139467*
X148628Y64522D02*
X152378D01*
Y62334*
X152066Y61709*
X151441Y61396*
X150816Y61709*
X150504Y62334*
Y64522*
Y62334D02*
X148628Y61396D01*
X152378Y59522D02*
X148628D01*
Y56396*
X151013Y6734D02*
X150700Y6421D01*
X150075Y6109*
X149138*
X148513Y6421*
X148200Y6734*
X147888Y7359*
Y8609*
X148200Y9234*
X148513Y9546*
X149138Y9859*
X150075*
X150700Y9546*
X151013Y9234*
X153200Y6421D02*
X153825Y6109D01*
X154450*
X155075Y6421*
X155388Y7046*
X155075Y7671*
X154450Y7984*
X153825*
X154450D02*
X155075Y8296D01*
X155388Y8921*
X155075Y9546*
X154450Y9859*
X153825*
X153200Y9546*
X157596Y52715D02*
Y158715D01*
X177588Y87246D02*
X177275Y86933D01*
X176650Y86620*
X175713*
X175088Y86933*
X174775Y87246*
X174463Y87870*
Y89120*
X174775Y89746*
X175088Y90058*
X175713Y90370*
X176650*
X177275Y90058*
X177588Y89746*
X180400Y88496D02*
X181025D01*
X181650Y88808*
X181963Y89433*
X181650Y90058*
X181025Y90370*
X180400*
X179775Y90058*
X179463Y89433*
X179775Y88808*
X180400Y88496*
X179775Y88183*
X179463Y87558*
X179775Y86933*
X180400Y86620*
X181025*
X181650Y86933*
X181963Y87558*
X181650Y88183*
X181025Y88496*
X179557Y18061D02*
X157557D01*
Y6061*
X179557*
Y18061*
X181179Y6093D02*
X203179D01*
Y14093*
X181179*
Y6093*
X196289Y21498D02*
X195976Y21185D01*
X195351Y20872*
X194413*
X193789Y21185*
X193476Y21498*
X193163Y22122*
Y23372*
X193476Y23998*
X193789Y24310*
X194413Y24622*
X195351*
X195976Y24310*
X196289Y23998*
X198163Y21810D02*
X198476Y22435D01*
X199101Y22748*
X199726*
X200351Y22435*
X200663Y21810*
X200351Y21185*
X199726Y20872*
X199101*
X198476Y21185*
X198163Y21810*
Y22748*
X198476Y23685*
X199101Y24310*
X199726Y24622*
X203817Y9998D02*
X225817D01*
Y21998*
X203817*
Y9998*
X207018Y92341D02*
X185018D01*
Y84341*
X207018*
Y92341*
X230737Y19529D02*
X230425Y19217D01*
X229800Y18904*
X228862*
X228237Y19217*
X227925Y19529*
X227612Y20154*
Y21404*
X227925Y22029*
X228237Y22342*
X228862Y22654*
X229800*
X230425Y22342*
X230737Y22029*
X232612Y19217D02*
X233237Y18904D01*
X234175*
X234800Y19217*
X235112Y19842*
Y20154*
X234800Y20779*
X234175Y21092*
X232612*
Y22654*
X235112*
X228470Y9545D02*
X244470D01*
Y16545*
X228470*
Y9545*
X232533Y3156D02*
Y6906D01*
X234721*
X235346Y6594*
X235659Y5969*
X235346Y5344*
X234721Y5031*
X232533*
X234721D02*
X235659Y3156D01*
X237533Y4094D02*
X237846Y4719D01*
X238471Y5031*
X239096*
X239721Y4719*
X240033Y4094*
X239721Y3469*
X239096Y3156*
X238471*
X237846Y3469*
X237533Y4094*
Y5031*
X237846Y5969*
X238471Y6594*
X239096Y6906*
X233596Y52715D02*
Y158715D01*
X238033Y149770D02*
Y153520D01*
X236470D02*
X239596D01*
X241470Y149770D02*
Y153520D01*
X243658*
X244283Y153208*
X244596Y152583*
X244283Y151958*
X243658Y151645*
X241470*
X243658D02*
X244596Y149770D01*
X247096D02*
X248346D01*
X247720D02*
Y153520D01*
X247096Y152895*
X239250Y75943D02*
X261250D01*
Y87943*
X239250*
Y75943*
Y94644D02*
X261250D01*
Y106644*
X239250*
Y94644*
Y114329D02*
X261250D01*
Y126329*
X239250*
Y114329*
X246485Y90395D02*
X246173Y90083D01*
X245548Y89770*
X244610*
X243985Y90083*
X243673Y90395*
X243360Y91020*
Y92270*
X243673Y92895*
X243985Y93208*
X244610Y93520*
X245548*
X246173Y93208*
X246485Y92895*
X248360Y90708D02*
X248673Y91333D01*
X249298Y91645*
X249923*
X250548Y91333*
X250860Y90708*
X250548Y90083*
X249923Y89770*
X249298*
X248673Y90083*
X248360Y90708*
Y91645*
X248673Y92583*
X249298Y93208*
X249923Y93520*
X255860Y91958D02*
X255235Y92270D01*
X254298*
X253673Y91958*
X253360Y91333*
Y90708*
X253673Y90083*
X254298Y89770*
X255235*
X255860Y90083*
X246485Y109096D02*
X246173Y108783D01*
X245548Y108471*
X244610*
X243985Y108783*
X243673Y109096*
X243360Y109721*
Y110971*
X243673Y111596*
X243985Y111909*
X244610Y112221*
X245548*
X246173Y111909*
X246485Y111596*
X248360Y109409D02*
X248673Y110033D01*
X249298Y110346*
X249923*
X250548Y110033*
X250860Y109409*
X250548Y108783*
X249923Y108471*
X249298*
X248673Y108783*
X248360Y109409*
Y110346*
X248673Y111283*
X249298Y111909*
X249923Y112221*
X253360Y109409D02*
X253673Y108783D01*
X254298Y108471*
X254923*
X255548Y108783*
X255860Y109409*
Y110033*
X255548Y110659*
X254923Y110971*
X254298*
X253673Y110659*
X253360Y110033*
Y108471D02*
Y112221D01*
X246485Y128781D02*
X246173Y128469D01*
X245548Y128156*
X244610*
X243985Y128469*
X243673Y128781*
X243360Y129406*
Y130656*
X243673Y131281*
X243985Y131594*
X244610Y131906*
X245548*
X246173Y131594*
X246485Y131281*
X248360Y129094D02*
X248673Y129719D01*
X249298Y130031*
X249923*
X250548Y129719*
X250860Y129094*
X250548Y128469*
X249923Y128156*
X249298*
X248673Y128469*
X248360Y129094*
Y130031*
X248673Y130969*
X249298Y131594*
X249923Y131906*
X253360Y130344D02*
X253985Y130656D01*
X254923*
X255548Y130344*
X255860Y129719*
Y128781*
X255548Y128469*
X254923Y128156*
X254298*
X253673Y128469*
X253360Y128781*
Y129094*
X253673Y129406*
X254298Y129719*
X254923*
X255548Y129406*
X255860Y129094*
Y128781D02*
Y128156D01*
X243407Y63242D02*
X239657D01*
Y65430*
X239969Y66055*
X240594Y66367*
X241219Y66055*
X241532Y65430*
Y63242*
Y65430D02*
X243407Y66367D01*
X241532Y69180D02*
Y69805D01*
X241219Y70430*
X240594Y70742*
X239969Y70430*
X239657Y69805*
Y69180*
X239969Y68555*
X240594Y68242*
X241219Y68555*
X241532Y69180*
X241844Y68555*
X242469Y68242*
X243094Y68555*
X243407Y69180*
Y69805*
X243094Y70430*
X242469Y70742*
X241844Y70430*
X241532Y69805*
X246187Y63679D02*
X262187D01*
Y70679*
X246187*
Y63679*
X248156Y9545D02*
X264156D01*
Y16545*
X248156*
Y9545*
X252219Y4140D02*
Y7890D01*
X254406*
X255031Y7578*
X255344Y6953*
X255031Y6328*
X254406Y6015*
X252219*
X254406D02*
X255344Y4140D01*
X257219Y4453D02*
X257844Y4140D01*
X258781*
X259406Y4453*
X259719Y5078*
Y5390*
X259406Y6015*
X258781Y6328*
X257219*
Y7890*
X259719*
X261250Y26888D02*
X239250D01*
Y18888*
X261250*
Y26888*
X266170Y22482D02*
X265858Y22169D01*
X265233Y21857*
X264295*
X263670Y22169*
X263358Y22482*
X263045Y23107*
Y24357*
X263358Y24982*
X263670Y25294*
X264295Y25607*
X265233*
X265858Y25294*
X266170Y24982*
X269608Y21857D02*
Y25607D01*
X268045Y23107*
X270545*
X275935Y62085D02*
Y84085D01*
X263935*
Y62085*
X275935*
X281168Y78178D02*
X281480Y77866D01*
X281793Y77241*
Y76303*
X281480Y75678*
X281168Y75366*
X280543Y75053*
X279293*
X278668Y75366*
X278355Y75678*
X278043Y76303*
Y77241*
X278355Y77866*
X278668Y78178*
X281793Y80053D02*
X278043Y82553D01*
Y80053*
D02*
D75*
X31254Y18705D02*
X32238D01*
X31746D02*
Y21657D01*
X31254Y21165*
X36667Y18705D02*
X34699D01*
X36421Y20427*
X36667Y20919*
X36421Y21411*
X35929Y21657*
X35191*
X34699Y21411*
X38636Y21657D02*
X39866Y18705D01*
X41096Y21657*
X42573Y18705D02*
X45033Y21657D01*
X47002Y18705D02*
X47986D01*
X47494D02*
Y21657D01*
X47002Y21165*
X51431Y18705D02*
X51677Y18951D01*
Y19197*
X56352Y18705D02*
X54384D01*
X56106Y20427*
X56352Y20919*
X56106Y21411*
X55614Y21657*
X54876*
X54384Y21411*
X58321Y18951D02*
X58813Y18705D01*
X59551*
X60043Y18951*
X60289Y19443*
Y19689*
X60043Y20181*
X59551Y20427*
X58321*
Y21657*
X60289*
X62258Y18705D02*
X63488Y21657D01*
X64719Y18705*
X62750Y19935D02*
X64226D01*
X33715Y81943D02*
Y54384D01*
D02*
D76*
X14030Y37159D02*
X14768Y35683D01*
X16244Y34945*
X19197*
X20673Y35683*
X21411Y37159*
X20673Y38636*
X19197Y39374*
X16244*
X14768Y40112*
X14030Y41589*
X14768Y43065*
X16244Y43803*
X19197*
X20673Y43065*
X21411Y41589*
X29531Y34945D02*
Y43803D01*
X25841Y37898*
X31746*
X135289Y45329D02*
X131352D01*
Y14226*
X135289*
X150644Y45329D02*
X154581D01*
Y14226*
X150644*
X183124Y21904D02*
X163833D01*
Y47494*
X183124*
Y21904*
X196313Y99069D02*
Y110880D01*
X211116Y69148D02*
G75*
G02X211904I394D01*
G01*
X211116D02*
G75*
G02X211904I394D01*
G01*
G75*
G02X211116I-394*
G01*
X228400Y27435D02*
X203203D01*
Y45900*
X228400*
Y27435*
X240900Y43557D02*
X245033D01*
X246411Y43360D02*
X248183D01*
Y31943*
X246411*
Y43360*
X265801Y112061D02*
Y117573D01*
X291785*
Y112061*
D02*
D77*
X186668Y20396D02*
G75*
G03X186043Y21021I-312J313D01*
G01*
G75*
G03X186668Y20396I313J-312*
G01*
D02*
D78*
X57215Y47297D02*
X59090D01*
Y46360*
X58933Y46047*
X58777Y45891*
X58465Y45735*
X57840*
X57527Y45891*
X57371Y46047*
X57215Y46360*
Y47297*
X57371Y44641D02*
X57215Y44328D01*
Y44016*
X57371Y43704*
X57683Y43547*
X57996Y43704*
X58152Y44016*
Y44328*
Y44016D02*
X58309Y43704D01*
X58621Y43547*
X58933Y43704*
X59090Y44016*
Y44328*
X58933Y44641*
X144541Y28278D02*
Y30153D01*
X145479*
X145791Y29996*
X145948Y29840*
X146104Y29528*
Y28903*
X145948Y28590*
X145791Y28434*
X145479Y28278*
X144541*
X147822D02*
Y30153D01*
X147041Y28903*
X148291*
X170994Y33199D02*
X171619D01*
X171307D02*
Y35074D01*
X170994D02*
X171619D01*
X174588Y33511D02*
X174432Y33356D01*
X174119Y33199*
X173651*
X173338Y33356*
X173182Y33511*
X173026Y33824*
Y34449*
X173182Y34761*
X173338Y34918*
X173651Y35074*
X174119*
X174432Y34918*
X174588Y34761*
X175838Y33199D02*
X176463D01*
X176151D02*
Y35074D01*
X175838Y34761*
X193852Y114203D02*
Y116078D01*
X194946*
X195259Y115922*
X195415Y115609*
X195259Y115297*
X194946Y115141*
X193852*
X194946D02*
X195415Y114203D01*
X196352D02*
X197602Y116078D01*
X196352*
X195132Y67943D02*
Y69818D01*
X196069*
X196382Y69662*
X196538Y69506*
X196694Y69193*
Y68568*
X196538Y68256*
X196382Y68100*
X196069Y67943*
X195132*
X197944D02*
X198569D01*
X198257D02*
Y69818D01*
X197944Y69506*
X219223Y42057D02*
X219848D01*
X219535D02*
Y43932D01*
X219223D02*
X219848D01*
X222817Y42370D02*
X222660Y42214D01*
X222348Y42057*
X221879*
X221567Y42214*
X221410Y42370*
X221254Y42682*
Y43307*
X221410Y43620*
X221567Y43776*
X221879Y43932*
X222348*
X222660Y43776*
X222817Y43620*
X223910Y42214D02*
X224223Y42057D01*
X224535*
X224848Y42214*
X225004Y42526*
X224848Y42839*
X224535Y42995*
X224223*
X224535D02*
X224848Y43151D01*
X225004Y43464*
X224848Y43776*
X224535Y43932*
X224223*
X223910Y43776*
X245798Y46979D02*
X246422D01*
X246110D02*
Y48854D01*
X245798D02*
X246422D01*
X249391Y47291D02*
X249235Y47135D01*
X248922Y46979*
X248454*
X248141Y47135*
X247985Y47291*
X247829Y47604*
Y48229*
X247985Y48541*
X248141Y48697*
X248454Y48854*
X248922*
X249235Y48697*
X249391Y48541*
X251579Y46979D02*
X250329D01*
X251422Y48072*
X251579Y48385*
X251422Y48697*
X251110Y48854*
X250641*
X250329Y48697*
X266982Y46885D02*
Y45010D01*
X268545*
X269795D02*
X270420D01*
X270107D02*
Y46885D01*
X269795Y46572*
X279262Y108518D02*
X281137D01*
Y107580*
X280981Y107268*
X280824Y107111*
X280512Y106955*
X279887*
X279574Y107111*
X279419Y107268*
X279262Y107580*
Y108518*
Y104768D02*
Y106018D01*
X280356Y104924*
X280669Y104768*
X280981Y104924*
X281137Y105237*
Y105705*
X280981Y106018*
D02*
D79*
X185841Y61352D02*
X210250D01*
Y76943*
X185841*
D02*
D80*
X142967Y49364D02*
G75*
G02Y50348J492D01*
G01*
Y49364D02*
G75*
G02Y50348J492D01*
G01*
G75*
G02Y49364J-492*
G01*
X291785Y128892D02*
G75*
G02Y129876J492D01*
G01*
Y128892D02*
G75*
G02Y129876J492D01*
G01*
G75*
G02Y128892J-492*
G01*
D02*
D81*
X233551Y25667D02*
G75*
G03X233301Y26167I-125J250D01*
G01*
G75*
G03X233551Y25667I125J-250*
G01*
X0Y0D02*
M02*
